<?xml version="1.0" encoding="UTF-8"?>
<svg version="1.1" xmlns="http://www.w3.org/2000/svg" width="294" height="118">
<path d="M0 0 C97.02 0 194.04 0 294 0 C294 38.94 294 77.88 294 118 C196.98 118 99.96 118 0 118 C0 79.06 0 40.12 0 0 Z " fill="#FCFDFE" transform="translate(0,0)"/>
<path d="M0 0 C1.34888732 0.00015905 2.69778075 0.00584927 4.04663086 0.01586914 C5.10991859 0.01799156 5.10991859 0.01799156 6.19468689 0.02015686 C8.46699173 0.02577096 10.73919936 0.03832576 13.01147461 0.05102539 C14.54858257 0.05603858 16.08569206 0.0606018 17.62280273 0.06469727 C21.39823103 0.07574497 25.17358632 0.09301898 28.94897461 0.11352539 C29.43213135 1.76239746 29.43213135 1.76239746 29.92504883 3.44458008 C32.24001385 11.34224509 34.5787021 19.23227358 36.94897461 27.11352539 C38.8573605 33.46400221 40.75916663 39.81628358 42.63647461 46.17602539 C42.92167969 47.13798828 42.92167969 47.13798828 43.21264648 48.11938477 C44.87351185 53.7616974 46.414353 59.43575127 47.94897461 65.11352539 C52.45560711 44.75977618 56.72350997 24.35916361 60.37084961 3.83227539 C60.94897461 1.11352539 60.94897461 1.11352539 61.94897461 0.11352539 C63.72968707 0.02626316 65.51380601 0.00653498 67.29663086 0.01586914 C68.3762207 0.0190918 69.45581055 0.02231445 70.56811523 0.02563477 C72.27257812 0.03820313 72.27257812 0.03820313 74.01147461 0.05102539 C75.72173828 0.05779297 75.72173828 0.05779297 77.46655273 0.06469727 C80.29407812 0.07652792 83.12150101 0.09301129 85.94897461 0.11352539 C85.77156738 0.99838623 85.77156738 0.99838623 85.59057617 1.90112305 C84.67800819 6.45773688 83.77004404 11.01519005 82.87084961 15.57446289 C77.61102926 42.16878165 71.75577038 68.63453668 65.94897461 95.11352539 C55.38897461 95.11352539 44.82897461 95.11352539 33.94897461 95.11352539 C29.51408317 83.28714823 25.68723635 71.42179103 22.26367188 59.2722168 C19.60775069 49.85085736 16.78170466 40.48289293 13.94897461 31.11352539 C9.56144683 52.43628896 5.19283426 73.76160654 0.94897461 95.11352539 C-6.97102539 95.11352539 -14.89102539 95.11352539 -23.05102539 95.11352539 C-22.46420212 89.83211593 -21.91268974 84.91355505 -20.88696289 79.76196289 C-20.65549561 78.59681152 -20.42402832 77.43166016 -20.18554688 76.23120117 C-19.93490479 74.99611816 -19.6842627 73.76103516 -19.42602539 72.48852539 C-19.29608185 71.84268494 -19.16613831 71.19684448 -19.03225708 70.53143311 C-16.73072251 59.10308747 -14.20701123 47.73066994 -11.60083008 36.3684082 C-9.45367863 26.99051432 -7.44485509 17.59123007 -5.56054688 8.15698242 C-5.37435791 7.23771973 -5.18816895 6.31845703 -4.99633789 5.37133789 C-4.83665527 4.56841309 -4.67697266 3.76548828 -4.51245117 2.93823242 C-3.73066682 -0.15333172 -3.35233544 0.12473682 0 0 Z " fill="#0360B9" transform="translate(32.051025390625,10.886474609375)"/>
<path d="M0 0 C8.58 0 17.16 0 26 0 C24.50303121 7.48484396 22.98745386 14.96368688 21.4375 22.4375 C21.21642578 23.51193359 20.99535156 24.58636719 20.76757812 25.69335938 C20.55423828 26.72138672 20.34089844 27.74941406 20.12109375 28.80859375 C19.83383423 30.19776001 19.83383423 30.19776001 19.54077148 31.61499023 C19 34 19 34 18 37 C28.23 37 38.46 37 49 37 C49.33 33.37 49.66 29.74 50 26 C50.41385986 23.73510213 50.87584877 21.47782537 51.41015625 19.23828125 C51.77185913 17.69587769 51.77185913 17.69587769 52.14086914 16.12231445 C52.44500732 14.86507568 52.74914551 13.60783691 53.0625 12.3125 C54.031875 8.249375 55.00125 4.18625 56 0 C64.58 0 73.16 0 82 0 C79.45415617 12.95385242 76.84523527 25.8727546 73.9375 38.75 C71.94478587 47.57855994 70.11466135 56.41336348 68.47729492 65.31420898 C66.62030224 75.27886871 64.29298176 85.12743963 62 95 C53.75 95 45.5 95 37 95 C37 89.48669884 37.46310738 85.26009291 38.8125 80.0625 C40.87531239 71.75313005 42.48173289 63.42638247 44 55 C34.1 55 24.2 55 14 55 C13.34 59.62 12.68 64.24 12 69 C11.18333704 73.2639474 10.34272076 77.5059383 9.4375 81.75 C9.21642578 82.81476563 8.99535156 83.87953125 8.76757812 84.9765625 C7.13502747 92.72994505 7.13502747 92.72994505 6 95 C-2.25 95 -10.5 95 -19 95 C-17.87474877 84.8727389 -17.87474877 84.8727389 -16.80078125 79.76171875 C-16.56407715 78.62597412 -16.32737305 77.49022949 -16.08349609 76.32006836 C-15.82906738 75.1213208 -15.57463867 73.92257324 -15.3125 72.6875 C-15.04775879 71.42365479 -14.78301758 70.15980957 -14.51025391 68.85766602 C-12.41669939 58.87501381 -10.26924959 48.90375481 -8.11938477 38.93310547 C-6.44086261 31.12744891 -4.82694315 23.31157628 -3.29248047 15.47631836 C-2.27533081 10.29367139 -1.14672925 5.16028161 0 0 Z " fill="#0360B9" transform="translate(127,11)"/>
<path d="M0 0 C0.99 0.99 0.99 0.99 2 2 C0.02 7.94 -1.96 13.88 -4 20 C-5.36125 19.505 -6.7225 19.01 -8.125 18.5 C-14.20958936 16.82753434 -20.10743545 16.66200711 -26.375 16.625 C-27.81963623 16.60469727 -27.81963623 16.60469727 -29.29345703 16.58398438 C-36.19764582 16.56083386 -36.19764582 16.56083386 -42 20 C-42.7564099 24.12063473 -42.7564099 24.12063473 -42 28 C-38.07358835 31.98030357 -33.32724489 33.68849919 -28.25 35.75 C-20.05079913 39.24123011 -13.13555993 42.94544843 -8.30859375 50.7265625 C-6.75099464 54.62288504 -6.46301155 58.11191663 -6.5 62.25 C-6.50644531 63.00071777 -6.51289063 63.75143555 -6.51953125 64.52490234 C-6.79552627 72.94456629 -9.50802944 78.85861399 -15.5 84.8125 C-28.7328776 95.37886554 -47.78703721 96.38723805 -64 95 C-69.77546405 94.09710319 -75.39136068 92.62737721 -81 91 C-82.53921449 86.25332058 -81.21090884 82.6851168 -79.5625 78.1875 C-79.19801758 77.14819336 -79.19801758 77.14819336 -78.82617188 76.08789062 C-78.22830384 74.38806975 -77.61561518 72.69347428 -77 71 C-76.39671875 71.20496094 -75.7934375 71.40992187 -75.171875 71.62109375 C-74.37265625 71.89050781 -73.5734375 72.15992187 -72.75 72.4375 C-71.96109375 72.70433594 -71.1721875 72.97117187 -70.359375 73.24609375 C-60.00806017 76.55371587 -46.87690677 76.67853478 -37 72 C-34.04304884 69.62351269 -34.01499959 69.1181218 -33.5 65.0625 C-33.29519392 63.00691475 -33.29519392 63.00691475 -34 61 C-38.69956229 56.13739167 -45.38641232 54.06784276 -51.51953125 51.53125 C-58.02333236 48.73412651 -63.64682436 45.65656365 -67.55859375 39.578125 C-70.90506096 30.7137052 -71.31969637 23.15523282 -67.3828125 14.38671875 C-62.4853628 5.93377591 -54.72783602 1.03970902 -45.5390625 -1.74609375 C-31.99184658 -4.62636693 -12.99169999 -5.59721462 0 0 Z " fill="#0360B8" transform="translate(280,13)"/>
</svg>
