<svg xmlns="http://www.w3.org/2000/svg" viewBox="0 0 1200 800" role="img" aria-label="Data analytics and machine learning illustration">
  <defs>
    <linearGradient id="g" x1="0" y1="0" x2="1" y2="1">
      <stop offset="0" stop-color="#ce2453" stop-opacity="0.95"/>
      <stop offset="0.55" stop-color="#dd5c54" stop-opacity="0.65"/>
      <stop offset="1" stop-color="#522c72" stop-opacity="0.95"/>
    </linearGradient>
    <filter id="blur" x="-30%" y="-30%" width="160%" height="160%">
      <feGaussianBlur stdDeviation="24"/>
    </filter>
  </defs>
  <rect width="1200" height="800" fill="#060606"/>
  <circle cx="220" cy="190" r="170" fill="url(#g)" filter="url(#blur)" opacity="0.85"/>
  <circle cx="1000" cy="640" r="210" fill="url(#g)" filter="url(#blur)" opacity="0.65"/>
  <g transform="translate(170 170)">
    <rect x="0" y="0" width="860" height="500" rx="28" fill="rgba(255,255,255,0.04)" stroke="rgba(255,255,255,0.10)"/>
    <g transform="translate(70 90)">
      <rect x="0" y="0" width="320" height="320" rx="24" fill="rgba(0,0,0,0.30)" stroke="rgba(255,255,255,0.12)"/>
      <g transform="translate(44 56)" fill="none" stroke-width="8" stroke-linecap="round">
        <path d="M0 220V120" stroke="rgba(221,92,84,0.9)"/>
        <path d="M60 220V70"  stroke="rgba(206,36,83,0.85)"/>
        <path d="M120 220V150" stroke="rgba(255,153,0,0.75)"/>
        <path d="M180 220V40"  stroke="rgba(82,44,114,0.85)"/>
      </g>
      <path d="M44 246h232" stroke="rgba(255,255,255,0.16)" stroke-width="2"/>
    </g>
    <g transform="translate(440 90)">
      <rect x="0" y="0" width="350" height="180" rx="22" fill="rgba(255,255,255,0.03)" stroke="rgba(255,255,255,0.10)"/>
      <path d="M34 46h250" stroke="rgba(255,255,255,0.34)" stroke-width="10" stroke-linecap="round"/>
      <path d="M34 78h290" stroke="rgba(255,255,255,0.22)" stroke-width="10" stroke-linecap="round"/>
      <path d="M34 110h210" stroke="rgba(255,255,255,0.16)" stroke-width="10" stroke-linecap="round"/>
      <g transform="translate(34 132)">
        <rect x="0" y="0" width="148" height="34" rx="12" fill="rgba(206,36,83,0.12)" stroke="rgba(206,36,83,0.28)"/>
        <path d="M16 17h90" stroke="rgba(255,255,255,0.38)" stroke-width="8" stroke-linecap="round"/>
      </g>
    </g>
    <g transform="translate(440 310)">
      <rect x="0" y="0" width="350" height="100" rx="22" fill="rgba(0,0,0,0.32)" stroke="rgba(255,255,255,0.12)"/>
      <g transform="translate(30 30)" fill="none" stroke="rgba(255,255,255,0.20)" stroke-width="2">
        <circle cx="26" cy="20" r="16"/>
        <path d="M70 20h250" stroke="rgba(255,255,255,0.20)" stroke-width="10" stroke-linecap="round"/>
      </g>
    </g>
  </g>
</svg>
