<svg xmlns="http://www.w3.org/2000/svg" viewBox="0 0 1200 800" role="img" aria-label="Modernization banner illustration">
  <defs>
    <linearGradient id="g" x1="0" y1="0" x2="1" y2="1">
      <stop offset="0" stop-color="#FF9900" stop-opacity="0.9"/>
      <stop offset="0.5" stop-color="#962964" stop-opacity="0.55"/>
      <stop offset="1" stop-color="#ce2453" stop-opacity="0.85"/>
    </linearGradient>
    <filter id="blur" x="-30%" y="-30%" width="160%" height="160%">
      <feGaussianBlur stdDeviation="26"/>
    </filter>
  </defs>
  <rect width="1200" height="800" fill="#050505"/>
  <circle cx="260" cy="640" r="240" fill="url(#g)" filter="url(#blur)" opacity="0.7"/>
  <circle cx="980" cy="180" r="190" fill="url(#g)" filter="url(#blur)" opacity="0.65"/>
  <g transform="translate(160 170)">
    <rect x="0" y="0" width="880" height="480" rx="30" fill="rgba(255,255,255,0.04)" stroke="rgba(255,255,255,0.10)"/>
    <g transform="translate(80 90)" fill="none" stroke="rgba(255,255,255,0.14)" stroke-width="2">
      <rect x="0" y="0" width="720" height="320" rx="24"/>
      <path d="M0 70h720"/>
      <path d="M220 70v250"/>
      <path d="M470 70v250"/>
    </g>
    <g transform="translate(120 140)">
      <rect x="0" y="0" width="180" height="50" rx="16" fill="rgba(255,153,0,0.14)" stroke="rgba(255,153,0,0.32)"/>
      <path d="M18 26h100" stroke="rgba(255,255,255,0.36)" stroke-width="10" stroke-linecap="round"/>
    </g>
    <g transform="translate(380 140)">
      <rect x="0" y="0" width="220" height="50" rx="16" fill="rgba(150,41,100,0.14)" stroke="rgba(150,41,100,0.32)"/>
      <path d="M18 26h140" stroke="rgba(255,255,255,0.36)" stroke-width="10" stroke-linecap="round"/>
    </g>
    <g transform="translate(670 140)">
      <rect x="0" y="0" width="160" height="50" rx="16" fill="rgba(206,36,83,0.12)" stroke="rgba(206,36,83,0.30)"/>
      <path d="M18 26h86" stroke="rgba(255,255,255,0.34)" stroke-width="10" stroke-linecap="round"/>
      <circle cx="128" cy="26" r="7" fill="#22c55e"/>
    </g>
    <g transform="translate(120 270)" fill="none" stroke-width="10" stroke-linecap="round">
      <path d="M0 0h220" stroke="rgba(255,255,255,0.18)"/>
      <path d="M0 46h320" stroke="rgba(255,255,255,0.12)"/>
      <path d="M0 92h280" stroke="rgba(255,255,255,0.10)"/>
    </g>
  </g>
</svg>
