<svg viewBox="0 0 100 50" fill="none" xmlns="http://www.w3.org/2000/svg">
<path d="M39.6576 49.9999C31.5847 49.9999 25.0371 43.4523 25.0371 35.3794H28.869C28.869 41.3318 33.7053 46.1681 39.6576 46.1681V49.9999Z" fill="#1E417B"/>
<path d="M54.2778 35.3423H50.4459C50.4459 29.3899 45.6096 24.5536 39.6572 24.5536V20.6846C47.7301 20.7218 54.2778 27.3066 54.2778 35.3423Z" fill="#F0513F"/>
<path d="M35.5283 21.0566V17.1875C39.2114 17.1875 42.1875 14.2114 42.1875 10.5283H46.0566C46.0566 16.3319 41.3319 21.0566 35.5283 21.0566Z" fill="#27AAE1"/>
<path d="M28.869 10.5283H25C25 4.7247 29.7247 0 35.5283 0V3.86905C31.8452 3.86905 28.869 6.88244 28.869 10.5283Z" fill="#2276BC"/>
<path d="M64.4717 50V46.1309C68.1547 46.1309 71.1309 43.1547 71.1309 39.4717H75C75 45.2753 70.2753 50 64.4717 50Z" fill="#27AAE1"/>
<path d="M57.8124 39.4716H53.9434C53.9434 33.6681 58.6681 28.9434 64.4716 28.9434V32.8124C60.7886 32.8124 57.8124 35.8258 57.8124 39.4716Z" fill="#2276BC"/>
<path d="M60.3422 29.3154C52.2693 29.3154 45.7217 22.7677 45.7217 14.6948H49.5907C49.5907 20.6472 54.427 25.4835 60.3794 25.4835V29.3154H60.3422Z" fill="#1E417B"/>
<path d="M74.9995 14.6577H71.1305C71.1305 8.70535 66.2942 3.86905 60.3418 3.86905V0C68.4147 0.0372024 74.9995 6.58482 74.9995 14.6577Z" fill="#F0513F"/>
<path d="M25 10.5283C25 13.8021 26.4881 16.7411 28.869 18.6756V10.5655H25V10.5283Z" fill="#201A55"/>
<path d="M35.5284 17.1875C31.8453 17.1875 28.8691 14.2114 28.8691 10.5283V18.6384C30.6921 20.1265 32.9986 21.0194 35.5284 21.0194V17.1875Z" fill="#1E417B"/>
<path d="M28.869 35.3421V25.4463C26.4881 28.0505 25 31.5103 25 35.3421H28.869Z" fill="#1F295C"/>
<path d="M28.8691 25.4836V35.3794C28.8691 29.427 33.7055 24.5907 39.6578 24.5907V20.7217C35.3796 20.7217 31.5477 22.5446 28.8691 25.4836Z" fill="#2276BC"/>
<path d="M28.869 18.6755C26.5253 16.741 25 13.8392 25 10.5654V35.3794C25 31.5848 26.4509 28.0878 28.869 25.4836V18.6755Z" fill="#1E417B"/>
<path d="M71.1309 39.4715H74.9999C74.9999 36.1977 73.5118 33.2587 71.1309 31.3242V39.4715Z" fill="#CE2127"/>
<path d="M64.4717 28.9805V32.8495C68.1547 32.8495 71.1309 35.8257 71.1309 39.5087V31.3614C69.308 29.8733 67.0014 28.9805 64.4717 28.9805Z" fill="#F0513F"/>
<path d="M71.1309 14.7321V24.5536C73.5118 21.9494 74.9627 18.5268 74.9999 14.7321V14.6577H71.1309C71.1309 14.6949 71.1309 14.6949 71.1309 14.7321Z" fill="#673537"/>
<path d="M60.3418 25.4462V29.3153C64.6201 29.3153 68.4519 27.4923 71.1305 24.5534V14.7319C71.0933 20.6471 66.257 25.4462 60.3418 25.4462Z" fill="#27AAE1"/>
<path d="M71.1309 24.5534V31.3614C73.4746 33.2959 74.9999 36.2349 74.9999 39.5087V14.7319C74.9627 18.4894 73.5118 21.9492 71.1309 24.5534Z" fill="#F0513F"/>
<path d="M60.3049 3.86905H60.3421V0H60.3049C56.5103 0 53.0505 1.48809 50.4463 3.86905H60.3049Z" fill="#19457D"/>
<path d="M45.7217 14.6578H49.5907C49.5907 8.74265 54.3898 3.90634 60.305 3.86914H50.4464C47.5446 6.54771 45.7217 10.4168 45.7217 14.6578Z" fill="#2276BC"/>
<path d="M43.6756 3.86905C41.7411 1.5253 38.8021 0 35.5283 0V3.86905H43.6756Z" fill="#0C3757"/>
<path d="M35.5283 3.86914C39.2114 3.86914 42.1875 6.84533 42.1875 10.5284H46.0566C46.0566 7.9986 45.1637 5.69206 43.6756 3.86914H35.5283Z" fill="#F0513F"/>
<path d="M35.5283 0.0371094C38.8021 0.0371094 41.7411 1.52521 43.6756 3.90616H50.4465C53.0506 1.52521 56.5105 0.0743118 60.3051 0.0371094H35.5283Z" fill="#2276BC"/>
<path d="M39.6572 46.1309V49.9999C43.4519 49.9999 46.9117 48.549 49.5159 46.1309H39.6572Z" fill="#1283C6"/>
<path d="M54.2786 35.3423H50.4468C50.4468 41.2947 45.6105 46.0938 39.6953 46.131H49.5539C52.4557 43.4524 54.2786 39.6206 54.2786 35.3423Z" fill="#27AAE1"/>
<path d="M56.3242 46.1309C58.2587 48.4746 61.1977 49.9999 64.4715 49.9999V46.1309H56.3242Z" fill="#1F295C"/>
<path d="M57.8124 39.4717H53.9434C53.9434 42.0014 54.8362 44.308 56.3243 46.1309H64.4716C60.7886 46.1309 57.8124 43.1547 57.8124 39.4717Z" fill="#1E417B"/>
<path d="M56.3239 46.1309H49.5531C46.9489 48.5118 43.4891 49.9999 39.6572 49.9999H64.4712C61.1974 49.9999 58.2584 48.4746 56.3239 46.1309Z" fill="#27AAE1"/>
</svg>
